<svg xmlns="http://www.w3.org/2000/svg" width="181" height="52" viewBox="0 0 181 52" fill="none">
  <path d="M71.52 21.8003C66.9224 21.8003 63.928 18.5373 63.928 13.673C63.928 8.92948 67.1342 5.48517 71.7317 5.48517C76.1175 5.48517 78.8398 8.59713 78.8398 13.7938C78.8398 14.0053 78.8398 14.2168 78.8398 14.4283H68.4953C68.4953 17.1475 69.6749 18.5977 71.7015 18.5977C73.1231 18.5977 74.212 17.7518 74.6052 16.2713L78.749 16.6339C77.7811 19.9271 75.1496 21.8003 71.52 21.8003ZM74.3632 11.8904C74.333 9.62439 73.2743 8.44607 71.4595 8.44607C69.7657 8.44607 68.6465 9.68481 68.5558 11.8904H74.3632Z" fill="white"/>
  <path d="M173.18 21.8003C168.583 21.8003 165.588 18.5373 165.588 13.673C165.588 8.92948 168.794 5.48517 173.392 5.48517C177.778 5.48517 180.5 8.59713 180.5 13.7938C180.5 14.0053 180.5 14.2168 180.5 14.4283H170.155C170.155 17.1475 171.335 18.5977 173.362 18.5977C174.783 18.5977 175.872 17.7518 176.265 16.2713L180.409 16.6339C179.441 19.9271 176.81 21.8003 173.18 21.8003ZM176.023 11.8904C175.993 9.62439 174.934 8.44607 173.12 8.44607C171.426 8.44607 170.307 9.68481 170.216 11.8904H176.023Z" fill="white"/>
  <path d="M79.2632 5.9082H84.1027L86.3712 15.0024L88.5188 5.9082H92.5416L94.7799 15.1535L97.4719 5.9082H101.102L96.625 21.3774H92.5719L90.0009 11.3164L87.4601 21.3774H83.7397L79.2632 5.9082Z" fill="white"/>
  <path d="M109.268 8.62735C107.302 8.62735 105.971 10.3193 105.911 13.6125C105.85 16.9058 107.211 18.6279 109.117 18.6279C110.599 18.6279 112.021 17.4798 112.263 15.4858L116.104 15.939C115.59 19.5041 112.747 21.8003 108.784 21.8003C104.187 21.8003 101.041 18.5373 101.132 13.673C101.223 8.7482 104.519 5.48517 109.419 5.48517C113.14 5.48517 115.711 7.66052 116.134 11.3465L112.142 11.7695C111.9 9.74524 110.629 8.62735 109.268 8.62735Z" fill="white"/>
  <path d="M127.477 18.8696C126.479 20.7429 124.785 21.7701 122.607 21.7701C119.401 21.7701 117.465 19.8969 117.465 17.0568C117.465 13.4313 120.793 11.4976 127.386 11.4372V10.7725C127.386 9.2014 126.57 8.38564 124.936 8.38564C123.122 8.38564 122.093 9.14097 121.881 10.561L117.889 10.1078C118.584 7.05626 121.034 5.51538 125.178 5.51538C129.806 5.51538 131.621 7.32818 131.621 11.558V18.4164C131.621 19.6854 131.742 20.6824 132.044 21.4076H127.78C127.598 20.6522 127.507 19.8063 127.477 18.8696ZM122.002 16.7849C122.002 18.0539 122.819 18.8092 124.241 18.8092C126.055 18.8092 127.417 17.2986 127.417 15.2138V13.7938C123.817 13.8542 122.002 14.9419 122.002 16.7849Z" fill="white"/>
  <path d="M136.914 16.5432C137.277 17.9632 138.578 18.779 140.483 18.779C142.117 18.779 143.024 18.0539 143.024 17.0871C143.024 15.7275 141.723 15.7879 139.455 15.3045C135.795 14.5491 133.95 13.3104 133.95 10.5308C133.95 7.63031 136.309 5.48517 140.181 5.48517C143.357 5.48517 145.504 6.90519 146.412 9.50353L142.964 10.1682C142.449 8.92948 141.512 8.41586 140.03 8.41586C138.608 8.41586 137.822 8.95969 137.822 9.95673C137.822 11.3163 139.304 11.2559 142.086 11.8602C145.444 12.5853 147.077 13.7938 147.077 16.4828C147.077 19.5343 144.506 21.7097 140.12 21.7097C136.581 21.7097 134.071 19.9271 133.345 17.0568L136.914 16.5432Z" fill="white"/>
  <path d="M159.206 0.5H163.622V21.3774H159.206V0.5Z" fill="white"/>
  <path d="M68.7374 33.9461C69.3726 32.8886 70.1287 32.0729 71.0059 31.5592C71.8831 31.0154 72.851 30.7435 73.9399 30.7435C74.8775 30.7435 75.6639 30.9247 76.2991 31.3175C76.9343 31.6801 77.4485 32.2843 77.8417 33.1001C78.2349 33.9159 78.4164 34.8223 78.4164 35.8193V42.8288C78.4164 43.3424 78.5374 43.7352 78.7794 43.9467C79.0214 44.1582 79.4146 44.279 79.959 44.279H80.9572V45.3969H73.3954V44.279H74.1213C74.7868 44.279 75.2707 44.1582 75.5127 43.9467C75.7849 43.7352 75.9059 43.4028 75.9059 42.9798V36.8466C75.9059 35.5172 75.6942 34.5201 75.301 33.8856C74.7263 32.9793 73.8794 32.4958 72.73 32.4958C71.5806 32.4958 70.6429 32.949 69.8868 33.8856C69.1306 34.8223 68.7374 36.0308 68.7374 37.5112V42.8288C68.7374 43.3424 68.8584 43.705 69.1003 43.9467C69.3423 44.1582 69.7355 44.279 70.28 44.279H71.2781V45.3969H63.5954V44.279H64.5935C65.0775 44.279 65.4707 44.1884 65.7429 43.9769C66.0151 43.7654 66.1361 43.5237 66.1361 43.2215V33.9159C66.1361 33.3116 65.9849 32.8282 65.6522 32.5261C65.3195 32.2239 64.8355 32.0426 64.2306 32.0426H63.5046V31.0154L68.6164 30.7737L68.7374 33.9461Z" fill="white"/>
  <path d="M81.2292 31.0759L87.0064 30.8946V43.2518C87.0064 43.5842 87.0972 43.8259 87.2484 43.9769C87.4904 44.1884 87.7928 44.2791 88.1558 44.2791H89.7892V45.3969H81.562V44.2791H83.0743C83.528 44.2791 83.8607 44.1582 84.0725 43.9467C84.2842 43.7352 84.3749 43.4029 84.3749 42.9799V33.9159C84.3749 33.3419 84.2237 32.9189 83.891 32.6167C83.5583 32.3146 83.0743 32.1937 82.4391 32.1937H81.2595V31.0759M85.2823 25.0332C85.7361 25.0332 86.1595 25.2145 86.4922 25.5468C86.8249 25.9094 87.0064 26.3022 87.0064 26.7856C87.0064 27.2388 86.8249 27.6315 86.4922 27.9941C86.1595 28.3265 85.7361 28.5077 85.2823 28.5077C84.7984 28.5077 84.4052 28.3265 84.0725 27.9941C83.7397 27.6618 83.5583 27.2388 83.5583 26.7856C83.5583 26.3324 83.7397 25.9094 84.0725 25.577C84.4354 25.2145 84.8286 25.0332 85.2823 25.0332Z" fill="white"/>
  <path d="M144.99 31.0759L150.767 30.8946V43.2518C150.767 43.5842 150.858 43.8259 151.009 43.9769C151.251 44.1884 151.554 44.2791 151.917 44.2791H153.55V45.3969H145.292V44.2791H146.805C147.259 44.2791 147.591 44.1582 147.803 43.9467C148.015 43.7352 148.105 43.4029 148.105 42.9799V33.9159C148.105 33.3419 147.954 32.9189 147.621 32.6167C147.289 32.3146 146.805 32.1937 146.17 32.1937H144.99V31.0759ZM149.043 25.0332C149.497 25.0332 149.92 25.2145 150.253 25.5468C150.616 25.9094 150.767 26.3022 150.767 26.7856C150.767 27.2388 150.586 27.6315 150.253 27.9941C149.92 28.3265 149.497 28.5077 149.043 28.5077C148.559 28.5077 148.166 28.3265 147.833 27.9941C147.5 27.6618 147.319 27.2388 147.319 26.7856C147.319 26.3324 147.5 25.9094 147.833 25.577C148.166 25.2145 148.589 25.0332 149.043 25.0332Z" fill="white"/>
  <path d="M88.791 31.0154H95.8991V32.0728C94.9614 32.1031 94.3565 32.1635 94.0842 32.3146C93.812 32.4656 93.691 32.6771 93.691 32.949C93.691 33.1605 93.7515 33.4022 93.8423 33.6137L97.6534 42.1037L101.162 33.8554C101.223 33.7044 101.253 33.5835 101.253 33.4324C101.253 32.6771 100.497 32.2239 99.0145 32.0426V31.0154H105.003V32.0728C104.398 32.1333 103.915 32.2843 103.552 32.5563C103.189 32.8282 102.916 33.1605 102.705 33.6137L97.4114 45.8501H96.5645L90.9386 33.2814C90.7268 32.8282 90.4849 32.526 90.1824 32.3448C89.8799 32.1635 89.4262 32.0728 88.791 32.0728V31.0154Z" fill="white"/>
  <path d="M117.677 38.2968H107.302C107.363 40.5024 107.756 42.0432 108.542 42.9496C109.419 43.9769 110.569 44.4603 111.93 44.4603C113.957 44.4603 115.59 43.3424 116.83 41.0764L117.798 41.4994C116.286 44.3999 114.138 45.8501 111.295 45.8501C109.359 45.8501 107.726 45.1552 106.425 43.7654C105.094 42.3756 104.459 40.593 104.459 38.4176C104.459 36.0912 105.094 34.1878 106.395 32.7375C107.695 31.2873 109.299 30.5622 111.204 30.5622C112.595 30.5622 113.805 30.9248 114.834 31.6499C115.832 32.375 116.618 33.4022 117.132 34.7316C117.465 35.6682 117.647 36.8768 117.677 38.2968ZM107.302 37.2393H113.654C114.017 37.2393 114.32 37.1185 114.531 36.8768C114.743 36.6351 114.834 36.2121 114.834 35.5776C114.834 34.4597 114.471 33.4929 113.745 32.7073C113.019 31.9218 112.172 31.529 111.204 31.529C110.115 31.529 109.208 32.0124 108.452 32.949C107.726 33.8857 107.332 35.3359 107.302 37.2393Z" fill="white"/>
  <path d="M133.012 40.0794C133.647 41.862 134.373 43.1007 135.22 43.7654C136.037 44.4603 137.065 44.7926 138.275 44.7926C139.394 44.7926 140.272 44.5509 140.846 44.0675C141.451 43.5841 141.754 42.9496 141.754 42.1943C141.754 41.7713 141.633 41.3785 141.421 41.0462C141.209 40.7138 140.907 40.4721 140.514 40.3211C140.12 40.17 139.092 39.9283 137.459 39.6262C135.886 39.324 134.797 38.9917 134.192 38.6593C133.587 38.327 133.103 37.8436 132.77 37.2695C132.438 36.6653 132.256 36.0308 132.256 35.3359C132.256 34.2784 132.619 33.3116 133.315 32.4656C134.222 31.3779 135.493 30.8039 137.126 30.8039C138.366 30.8039 139.515 31.1967 140.604 32.0124L141.633 30.9247H142.268L142.661 36.0912H141.663C141.209 34.6108 140.604 33.5231 139.818 32.8584C139.062 32.1937 138.094 31.8614 136.975 31.8614C136.007 31.8614 135.22 32.1031 134.676 32.5865C134.131 33.0699 133.829 33.6742 133.829 34.3691C133.829 34.9733 134.071 35.4869 134.585 35.9099C135.099 36.3329 136.067 36.6653 137.549 36.8768C139.243 37.1487 140.362 37.3904 140.877 37.6019C141.723 37.904 142.359 38.3874 142.812 39.0219C143.266 39.6564 143.508 40.4419 143.508 41.3483C143.508 42.6173 142.994 43.6747 141.996 44.5509C140.997 45.4271 139.727 45.8803 138.185 45.8803C136.763 45.8803 135.432 45.3969 134.222 44.4905L133.103 45.7595H132.286L131.984 40.1096H133.012" fill="white"/>
  <path d="M164.167 31.0154H171.093V32.0728H170.458C169.853 32.0728 169.43 32.1635 169.218 32.3146C169.006 32.4656 168.885 32.7073 168.885 32.9792C168.885 33.1001 168.916 33.2512 168.976 33.372L172.999 41.9828L176.024 34.8525C176.235 34.3388 176.356 33.8554 176.356 33.372C176.356 33.0095 176.205 32.7073 175.903 32.4958C175.6 32.2843 175.025 32.1635 174.118 32.1031V31.0154H180.107V32.0728C178.958 32.1937 178.201 32.6771 177.808 33.5835L172.394 45.9709C171.486 48.0859 170.549 49.5361 169.641 50.2914C168.704 51.077 167.736 51.4698 166.677 51.4698C165.921 51.4698 165.286 51.2583 164.832 50.8353C164.378 50.4123 164.136 49.8987 164.136 49.2944C164.136 48.8412 164.288 48.4484 164.56 48.1463C164.862 47.8442 165.195 47.6931 165.649 47.6931C166.042 47.6931 166.375 47.814 166.647 48.0859C166.919 48.3276 167.04 48.6297 167.04 48.9923C167.04 49.1131 167.01 49.2642 166.98 49.4455C166.949 49.5965 166.919 49.7174 166.919 49.7778C166.919 50.0195 167.07 50.1404 167.403 50.1404C167.736 50.1404 168.129 50.0195 168.553 49.7778C168.976 49.5361 169.369 49.1433 169.762 48.5995C170.125 48.0557 170.791 46.8471 171.698 44.9739L166.224 33.3116C166.012 32.9188 165.77 32.6167 165.498 32.4052C165.195 32.2239 164.772 32.0728 164.197 32.0124V31.0154" fill="white"/>
  <path d="M44.0557 0.5H49.7119L57.6366 13.3709L57.6063 0.5H62.0526V21.3774H57.3341L48.4717 6.875V21.3774H44.0557V0.5Z" fill="white"/>
  <path d="M41.4243 24.5195H50.8614V25.6374H49.2885C48.7441 25.6374 48.3509 25.7281 48.1089 25.9093C47.8972 26.0906 47.7762 26.3625 47.7762 26.7553V38.1759C47.7762 39.5053 47.8972 40.5326 48.1392 41.2275C48.4719 42.2547 49.1373 43.0403 50.0447 43.6445C50.9824 44.2488 52.1923 44.5509 53.6744 44.5509C55.7312 44.5509 57.304 44.0071 58.3929 42.9496C59.4818 41.8922 60.0262 40.4419 60.0262 38.6593V29.6256C60.0262 28.689 59.9657 27.9941 59.8447 27.5409C59.7238 27.0574 59.5423 26.6949 59.3003 26.423C59.0583 26.151 58.7559 25.9698 58.3929 25.8187C58.0299 25.6978 57.3947 25.6374 56.5478 25.6374V24.5195H65.1985V25.6374H64.5935C63.6256 25.6374 62.9299 25.9093 62.446 26.423C61.962 26.9366 61.7503 27.6919 61.7503 28.689V38.4478C61.7503 40.8951 61.0546 42.7683 59.6633 44.0675C58.0904 45.548 56.0034 46.2731 53.4021 46.2731C51.1336 46.2731 49.3793 45.9407 48.0787 45.3063C46.778 44.6718 45.8404 43.7352 45.2657 42.5569C44.812 41.6505 44.6003 40.5024 44.6003 39.1125V26.7553C44.6003 26.423 44.4793 26.1208 44.2373 25.9396C43.9953 25.7281 43.6323 25.6374 43.1484 25.6374H41.5151V24.5195" fill="white"/>
  <path d="M157.18 18.1747C156.696 18.2654 156.242 18.3258 155.849 18.3258C154.306 18.3258 153.973 17.6309 153.973 15.8785V8.92948H157.18V5.93836H153.973V1.43658L149.497 2.25234V5.90815H147.5V8.89926H149.497V16.3317C149.497 20.1084 150.949 21.7701 154.578 21.7701C155.395 21.7701 156.272 21.6795 157.18 21.4982V18.1747Z" fill="white"/>
  <path d="M163.199 39.9283C163.108 41.439 162.836 42.5267 162.352 43.1914C161.868 43.8561 161.263 44.1884 160.567 44.1884C159.992 44.1884 159.509 43.9769 159.115 43.5539C158.722 43.131 158.541 42.4965 158.541 41.6807V32.2844H163.078V31.0154H158.541V25.0332H157.482C157.391 27.0575 156.907 28.6286 156 29.7465C155.395 30.532 154.487 31.0154 153.308 31.1967V32.2542H155.879V42.1037C155.879 43.1914 156.212 44.0374 156.907 44.702C157.603 45.3667 158.541 45.6991 159.75 45.6991C161.051 45.6991 162.14 45.2157 162.957 44.2791C163.773 43.3424 164.227 41.8922 164.288 39.9283H163.199Z" fill="white"/>
  <path d="M129.201 30.5018C126.691 30.5018 124.573 33.4325 123.696 36.7257V30.7737L118.463 31.0154V32.1333H119.704C120.248 32.1333 120.671 32.2844 120.974 32.6167C121.276 32.949 121.428 33.4325 121.428 34.1576V43.3122C121.428 43.5841 121.307 43.7956 121.065 44.0071C120.823 44.1884 120.46 44.279 119.976 44.279H118.554V45.3969H127.537V44.279H125.723C125.118 44.279 124.694 44.1884 124.452 44.0071C124.21 43.8258 124.089 43.5539 124.089 43.2216V40.5628C124.089 37.7832 125.269 33.0699 127.598 33.0699C128.233 33.0699 128.112 34.0971 129.383 34.0971C130.411 34.0971 131.137 33.3418 131.137 32.3448C131.137 31.2269 130.229 30.5018 129.201 30.5018Z" fill="white"/>
  <path d="M0.5 0.5C0.5 0.5 0.5 12.827 0.5 18.8092C0.5 36.1214 20.0093 46.122 20.0093 46.122C20.0093 46.122 39.5187 36.1819 39.5187 18.8092C39.5187 12.827 39.5187 0.5 39.5187 0.5H0.5Z" fill="#003A65"/>
  <path d="M38.3088 1.70853V18.8092C38.3088 22.5557 37.3409 26.2417 35.4353 29.8069C33.8927 32.6771 31.7149 35.4568 28.9927 38.0551C25.2421 41.6505 21.4309 43.9467 20.0396 44.7322C18.6482 43.9467 14.8673 41.6505 11.1167 38.0551C8.36422 35.4568 6.15619 32.6771 4.61359 29.8069C2.67779 26.2417 1.70988 22.5557 1.70988 18.8092C1.70988 13.9751 1.70988 4.97156 1.70988 1.70853H38.3088ZM39.5187 0.5H0.5C0.5 0.5 0.5 12.827 0.5 18.8092C0.5 36.1214 20.0093 46.122 20.0093 46.122C20.0093 46.122 39.5187 36.1819 39.5187 18.8092C39.5187 12.827 39.5187 0.5 39.5187 0.5Z" fill="white"/>
  <path d="M30.626 31.4082C30.626 30.3507 30.4747 29.3235 30.1723 28.3264C27.2686 30.2299 24.4253 30.7133 22.7013 29.686C22.792 29.5652 22.8525 29.4141 22.8525 29.2631C22.8525 28.8703 22.55 28.5682 22.1568 28.5682C22.0056 28.5682 21.8543 28.6286 21.7334 28.7192C20.705 27.0273 21.1889 24.157 23.0945 21.2565C22.0963 20.9544 21.0679 20.8033 20.0093 20.8033C18.9506 20.8033 17.9222 20.9544 16.9241 21.2565C18.8296 24.157 19.3136 26.9971 18.2852 28.7192C18.1642 28.6286 18.013 28.5682 17.8617 28.5682C17.4685 28.5682 17.1661 28.8703 17.1661 29.2631C17.1661 29.4141 17.2266 29.5652 17.3173 29.686C15.6235 30.7133 12.75 30.2299 9.84628 28.3264C9.54381 29.3235 9.39258 30.3507 9.39258 31.4082C9.39258 32.4657 9.54381 33.4929 9.84628 34.49C12.75 32.5865 15.5932 32.1031 17.3173 33.1304C17.2266 33.2512 17.1661 33.4023 17.1661 33.5533C17.1661 33.9461 17.4685 34.2483 17.8617 34.2483C18.013 34.2483 18.1642 34.1878 18.2852 34.0972C19.3136 35.7891 18.8296 38.6594 16.9241 41.5599C17.9222 41.862 18.9506 42.0131 20.0093 42.0131C21.0679 42.0131 22.0963 41.862 23.0945 41.5599C21.1889 38.6594 20.705 35.8193 21.7334 34.0972C21.8543 34.1878 22.0056 34.2483 22.1568 34.2483C22.55 34.2483 22.8525 33.9461 22.8525 33.5533C22.8525 33.4023 22.792 33.2512 22.7013 33.1304C24.3951 32.1031 27.2686 32.5865 30.1723 34.49C30.4747 33.4929 30.626 32.4657 30.626 31.4082Z" fill="white"/>
  <path d="M21.9451 31.4082C21.9451 32.4657 21.0982 33.3418 20.0093 33.3418C18.9507 33.3418 18.0735 32.4959 18.0735 31.4082C18.0735 30.3507 18.9204 29.4745 20.0093 29.4745C21.0679 29.5048 21.9451 30.3507 21.9451 31.4082Z" fill="#003A65"/>
  <path d="M38.3693 1.61792H1.61914V18.8093H38.3693V1.61792Z" fill="white"/>
  <path d="M22.9736 13.8543C23.1551 13.9751 23.0643 14.1262 22.9736 14.2169C22.8828 14.3075 21.9452 14.9118 21.3402 14.7305C20.8865 14.5794 20.8865 13.7637 20.2513 13.4917C19.7371 13.2802 19.1624 13.673 19.1624 13.673C20.0699 13.6428 20.3421 14.942 20.3421 14.942C18.9507 13.8543 17.6803 14.6096 17.5896 15.3045C18.7995 14.5794 19.7371 15.5764 19.7371 15.5764C19.3137 15.6369 18.3458 16.3318 19.0717 17.4497C19.1927 16.1505 20.4933 15.939 20.4933 15.939C20.3723 16.5433 20.9168 17.7518 21.9452 17.5101C21.2192 17.0267 21.3402 16.5433 21.3402 16.2109C21.3402 16.0296 21.552 15.9088 21.7939 15.8786C23.2155 15.7275 23.2155 16.8152 23.2155 16.8152C23.6088 16.785 24.6674 15.365 24.6069 14.6398C25.0001 15.2441 26.0588 15.5764 26.8149 15.0326C25.847 14.8815 25.4236 13.9147 25.3631 13.7334C25.3026 13.5522 25.0606 12.3738 24.6069 11.9206C23.9717 11.2862 22.9433 11.7696 22.4291 12.2832C22.2476 12.4343 21.7637 13.3105 22.3686 13.5824C22.7921 13.7032 22.8828 13.7939 22.9736 13.8543Z" fill="#D70929"/>
  <path d="M7.51742 11.0143C6.03532 11.0143 4.37173 8.02315 4.2205 7.78144C5.06741 7.72102 5.03717 7.29803 4.94643 7.02611C4.64396 6.02907 2.73839 6.96568 2.58716 7.14696C2.64765 6.18014 3.7063 5.78737 4.34149 5.90822C4.2205 4.42777 2.85938 4.33713 2.85938 4.33713C4.03902 3.46094 4.79519 4.57884 5.03717 5.42481C6.2168 4.54862 5.09766 3.37031 4.88593 3.24945C4.88593 3.24945 5.82359 3.15881 6.2168 4.12564C6.57976 5.03203 6.12606 5.57587 6.12606 5.57587C6.12606 5.57587 6.42853 5.57587 6.61001 5.42481C7.27545 4.97161 7.2452 4.36734 7.21495 4.24649C7.21495 4.24649 7.6989 4.54862 7.63841 5.12267C7.60816 5.51545 7.21495 5.81758 7.03347 6.02907C6.88224 6.24057 6.48902 6.69376 6.97298 8.144C7.21495 8.83891 7.57792 9.38275 7.85014 9.5036C7.66866 9.77552 7.39643 10.1381 7.51742 11.0143Z" fill="#D70929"/>
  <path d="M4.25067 13.1897C3.31301 13.2501 1.67967 13.6429 2.52659 15.3348C2.55684 14.1867 4.09944 14.0658 4.40191 14.1565C3.64573 15.4254 4.52289 16.634 5.21858 16.5735C4.52289 16.0297 5.15808 15.2139 5.21858 14.942C5.27907 14.7305 5.52105 14.6097 5.79327 14.7003C6.64019 14.942 6.03525 15.6671 6.03525 15.6671C7.91056 16.5131 8.75748 15.788 9.12044 15.365C9.12044 15.365 9.69513 15.9089 9.12044 16.3318C9.42291 16.5131 11.2075 16.5735 11.8729 15.7578C12.0846 16.4225 14.2019 16.4225 14.5347 16.1203C14.5347 16.1203 14.1112 15.8786 14.1112 15.5765C14.1112 15.0629 14.6859 14.6399 15.4118 14.3378C16.2587 13.9752 17.6199 13.7939 19.0112 13.1594C21.552 11.9509 24.6977 9.71513 25.6958 11.1049C26.21 11.8301 26.089 12.525 26.6032 13.0084C27.1174 13.4918 27.9341 13.2803 28.4483 13.2199C29.6884 13.0688 31.473 12.8875 32.5619 12.8271C33.6508 12.7667 33.9532 13.5522 33.9532 13.6429C34.044 13.8846 33.923 14.0356 33.7718 14.0054C33.4088 13.9752 32.7434 13.8241 32.3502 14.0356C31.8057 14.3378 31.9569 15.0931 31.9569 15.0931C32.4106 14.3075 33.681 14.4284 34.1347 14.4888C33.7113 14.8514 32.9248 16.2714 34.044 16.9059C33.7415 15.8182 34.7699 15.0629 34.7699 15.0629C34.8607 15.365 35.5261 15.9995 37.0082 15.9089C35.4656 15.4254 35.7076 14.6399 35.7076 14.6399C36.2218 14.8514 37.3107 14.7003 37.8249 13.5824C36.0705 14.6701 35.5866 13.6429 35.5261 13.522C35.2236 12.9782 36.0705 12.8573 36.0705 12.8573C35.8891 12.4948 33.4693 10.9841 34.6792 10.5309C34.2557 10.2892 33.2576 10.3798 32.3804 11.0445C32.4106 10.833 32.3804 10.259 32.1082 10.0173C32.1082 10.0173 30.6563 11.0143 29.5069 10.833C28.3575 10.6517 28.8113 8.92959 28.8113 8.92959C28.8113 8.92959 31.7452 9.29215 32.8341 8.77852C33.923 8.26489 33.923 7.50956 34.8304 7.02615C35.5563 6.63338 36.4335 6.96572 36.4335 6.96572C36.3125 6.21039 34.8607 5.60613 33.7718 6.78444C33.7718 6.78444 33.681 4.6393 31.0798 4.91122C29.4464 5.06229 28.2366 5.72698 26.5427 6.02911C24.9094 6.33124 23.3668 6.60316 22.3384 6.60316C21.31 6.60316 19.8279 6.33124 19.7069 5.18314C19.6464 4.51845 20.1606 4.21632 20.6748 4.21632C21.4612 4.21632 22.5501 4.66952 23.4273 4.97165C24.0625 5.18314 24.6674 5.18314 25.0304 5.18314C25.968 5.18314 27.1174 4.72994 27.6921 4.48824C28.2668 4.24653 28.7508 4.12568 29.8699 4.21632C29.5069 3.76312 27.0267 2.67544 25.3328 2.76608C23.7298 2.85672 23.6088 3.61205 22.0359 3.52141C20.4631 3.46098 19.0717 3.70269 19.0112 4.91122C18.981 6.08954 20.0094 7.3585 22.6106 7.17722C23.6693 7.11679 27.6014 6.4521 28.3878 6.21039C29.4162 5.87805 33.3483 5.12271 32.5921 7.05636C32.4409 7.47935 31.9569 7.90234 30.8076 7.90234C29.6582 7.90234 28.2063 7.56999 27.8131 7.50956C27.4199 7.44914 26.3915 7.32828 25.3933 7.47935C24.4557 7.6002 17.9828 8.53681 16.8032 8.68788C16.8032 9.08065 16.5612 10.3194 17.6803 11.0143C17.1964 11.256 16.2285 11.7394 15.2908 11.3466C15.2303 11.6488 15.5933 12.2228 16.0168 12.7062C15.6538 12.8271 14.2624 13.4918 13.5365 13.0084C13.234 13.522 12.3871 14.8212 10.2698 14.3982C10.3908 14.3075 10.3303 13.6731 9.84637 13.4616C9.33217 13.522 9.27168 13.8241 7.21488 13.5824C6.60994 13.522 6.09574 13.3105 5.91426 12.9177C5.73277 12.4948 5.97475 11.9207 5.85376 11.5884C5.58154 10.8934 4.55314 10.9841 4.55314 10.9841C5.46055 11.679 4.85561 12.6458 4.85561 12.6458C4.0087 11.7998 2.67783 10.9539 2.22412 12.4645C3.58524 11.9207 4.25067 13.1897 4.25067 13.1897Z" fill="#D70929"/>
  <path d="M17.4988 5.57586C16.9846 4.57882 15.8352 5.30394 15.8352 5.30394C16.1376 4.94138 15.8654 3.82349 15.4722 3.58178C15.4722 4.15583 14.9883 4.33711 14.6253 4.24647C14.1716 4.12562 14.3531 3.49114 14.4741 3.21922C14.1111 3.18901 13.3852 3.15879 12.871 3.88391C12.75 2.97751 11.9031 2.58474 11.0561 2.82645C11.9636 3.88391 9.9975 5.0018 9.30182 4.66946C8.9691 5.33415 10.058 6.11969 10.2092 5.9082C9.63454 6.75417 8.69688 6.57289 8.15243 6.39161C8.12219 6.75417 8.54565 7.53972 9.30182 7.53972C8.90861 8.14398 8.03145 8.20441 7.78947 8.08356C7.66848 8.65761 8.63639 9.20145 8.87836 9.23166C8.09194 10.4704 8.36416 12.0113 8.78762 12.6155L9.09009 13.1292C9.72528 11.8602 11.2074 12.3436 10.9654 13.5824C12.3568 13.7334 13.0222 12.5249 13.3247 11.7998C13.8086 12.3134 14.3833 12.3738 14.716 12.3134C14.2623 11.4674 14.4741 10.6215 14.6555 10.2891C15.1395 10.7423 15.8049 10.833 16.1679 10.7423C15.7142 10.1381 15.7142 8.59718 15.8352 8.05334C16.1376 8.26484 16.8333 8.47633 17.166 7.721C16.5914 7.53972 16.4704 5.54564 17.4988 5.57586ZM11.2376 5.75714C11.3284 5.6665 11.5099 5.51543 11.5703 5.60607C11.7216 5.81756 11.7518 5.96863 12.0241 6.24055C12.2055 6.42183 12.508 6.51247 12.6592 6.57289C12.7197 6.87503 12.145 7.29801 11.4796 6.69375C11.1469 6.3614 11.0259 5.96863 11.2376 5.75714ZM12.75 9.89635C12.0241 10.8934 11.3284 10.4402 11.3284 10.4402C11.3284 10.4402 10.5117 10.1381 10.9049 8.95974C10.3907 8.59718 10.5722 8.11377 10.7234 8.02313C10.7839 8.1742 10.8444 8.47633 11.2981 8.71804C11.7518 8.95974 11.9333 8.80868 11.9636 8.71804C12.0543 8.53676 11.8426 8.35548 11.6611 8.20441C11.5099 8.02313 11.4796 7.75121 11.5703 7.63036C11.7216 7.44908 11.9636 7.47929 12.0845 7.56993C11.5401 7.66057 12.266 8.11377 12.4173 8.20441C12.5987 8.29505 13.3852 8.59718 13.1432 8.11377C13.2642 8.14398 13.4154 8.35548 13.3852 8.56697C13.3549 8.71804 13.1129 8.8691 12.871 8.83889C12.629 8.80868 12.3568 8.74825 12.266 8.92953C12.2055 9.02017 12.266 9.29209 12.7197 9.50358C13.1734 9.74529 13.3549 9.59422 13.5667 9.53379C13.6271 9.68486 13.3549 10.1078 12.75 9.89635ZM15.0488 7.66057C14.9883 7.9627 14.6253 8.08356 14.2018 7.99292C13.3247 7.81164 13.3247 7.14695 13.5969 7.02609C13.7179 7.11673 13.9599 7.29801 14.2018 7.32823C14.5648 7.38865 14.716 7.32823 14.958 7.32823C15.079 7.32823 15.079 7.53972 15.0488 7.66057Z" fill="#D70929"/>
</svg>